Coordinates
version=1
nRows=11
nColumns=40
inDegrees=yes

Units are S.I. units (second, meters, Newtons, ...)
Angles are in degrees.

endheader
time	pelvis_tilt	pelvis_list	pelvis_rotation	pelvis_tx	pelvis_ty	pelvis_tz	hip_flexion_r	hip_adduction_r	hip_rotation_r	knee_angle_r	knee_angle_r_beta	ankle_angle_r	subtalar_angle_r	mtp_angle_r	hip_flexion_l	hip_adduction_l	hip_rotation_l	knee_angle_l	knee_angle_l_beta	ankle_angle_l	subtalar_angle_l	mtp_angle_l	lumbar_extension	lumbar_bending	lumbar_rotation	arm_flex_r	arm_add_r	arm_rot_r	elbow_flex_r	pro_sup_r	wrist_flex_r	wrist_dev_r	arm_flex_l	arm_add_l	arm_rot_l	elbow_flex_l	pro_sup_l	wrist_flex_l	wrist_dev_l
     33.70750000	     -7.50744232	     -5.33816208	     -1.87742511	      1.07809600	      0.92964159	      0.40432610	     37.93201251	     -3.69715614	     -7.12698883	     60.64250663	     60.64250663	      1.94375127	    -16.61100577	      2.73117141	     13.83130081	     -6.08837988	     -8.87818734	     20.14947672	     20.14947672	     15.39490893	     -8.69701947	     -1.29990406	    -12.29434149	      5.61017022	      0.82749053	     -0.79692369	    -14.99334886	      0.93211183	     26.38160196	     46.96390077	      0.00000000	      0.00000000	      2.37367521	    -16.00057258	    -12.81481547	     62.09300899	     47.24561929	      0.00000000	      0.00000000
     33.71957143	     -7.47163565	     -5.34137546	     -2.12589782	      1.07800799	      0.92946875	      0.40512580	     38.26041258	     -3.59707727	     -7.06379858	     58.11014082	     58.11014082	      1.36366458	    -16.30102410	      1.82401445	     13.07580883	     -6.17155226	     -9.25110579	     19.86609246	     19.86609246	     15.73058075	     -8.37766500	     -1.51430392	    -12.52725807	      5.63582106	      0.73553712	     -1.43771449	    -15.00779799	     -1.10067856	     25.25792621	     47.12376291	      0.00000000	      0.00000000	      1.96925977	    -16.15060753	    -13.47731676	     64.87705453	     47.35549439	      0.00000000	      0.00000000
     33.73164286	     -7.52687373	     -5.33324172	     -2.37179854	      1.07791243	      0.92915734	      0.40608193	     38.59494850	     -3.48455873	     -7.03089893	     55.36306154	     55.36306154	      1.10548165	    -15.70417521	      2.05581981	     12.38533205	     -6.20586786	     -9.47229729	     19.49544225	     19.49544225	     15.96678538	     -8.28623433	     -1.52760833	    -12.56090017	      5.64965353	      0.82204601	     -2.43516251	    -15.34031949	     -1.31954073	     24.74353353	     47.14769311	      0.00000000	      0.00000000	      2.42774300	    -16.21032636	    -13.67696540	     65.70465618	     47.38962562	      0.00000000	      0.00000000
     33.74371429	     -7.59989712	     -5.25856615	     -2.56841126	      1.07785868	      0.92866831	      0.40705761	     38.76627441	     -3.45453564	     -7.05284690	     52.26193030	     52.26193030	      0.52266671	    -15.14545344	      1.14493046	     11.75555436	     -6.20508179	     -9.84482471	     19.20983897	     19.20983897	     16.28752497	     -7.91686640	     -1.70521736	    -12.67969498	      5.59179741	      0.73486251	     -3.32436493	    -15.47637263	     -2.75973871	     24.69532457	     47.21171110	      0.00000000	      0.00000000	      2.18589048	    -16.41938199	    -14.01671365	     67.98785503	     47.47006877	      0.00000000	      0.00000000
     33.75578571	     -7.65676171	     -5.18553279	     -2.76999456	      1.07785523	      0.92820032	      0.40823743	     38.80178893	     -3.40230745	     -7.12119932	     48.95975907	     48.95975907	      0.25189117	    -14.14843911	      1.18237330	     11.06407665	     -6.19041121	    -10.14139257	     18.83418652	     18.83418652	     16.54445705	     -7.70155121	     -1.78168634	    -12.75796339	      5.52329735	      0.89005818	     -4.24677246	    -15.72416339	     -3.09886324	     24.46481959	     47.22566203	      0.00000000	      0.00000000	      2.58104484	    -16.48821340	    -14.21902502	     69.12857177	     47.51227694	      0.00000000	      0.00000000
     33.76785714	     -7.72589935	     -5.13398742	     -2.92101533	      1.07800613	      0.92763736	      0.40947234	     38.64452294	     -3.34774582	     -7.33735101	     45.35963756	     45.35963756	     -0.01604562	    -12.94067052	      1.09804506	     10.36988886	     -6.19754760	    -10.43665327	     18.44165024	     18.44165024	     16.83364054	     -7.37834027	     -1.91980095	    -12.80967026	      5.47284958	      0.90451615	     -5.10576763	    -15.94979804	     -3.49163302	     24.58193241	     47.22840772	      0.00000000	      0.00000000	      2.75637379	    -16.57642152	    -14.37477515	     70.49439884	     47.55381542	      0.00000000	      0.00000000
     33.77992857	     -7.84260184	     -5.03625203	     -3.03067245	      1.07827508	      0.92687108	      0.41078525	     38.34489531	     -3.32480652	     -7.65858506	     41.47316545	     41.47316545	     -0.56408872	    -11.71034635	      0.34000176	      9.74816601	     -6.18141477	    -10.81030380	     18.09367993	     18.09367993	     17.09824892	     -6.92649759	     -2.17951552	    -12.79224395	      5.36746392	      0.76225678	     -6.10464479	    -16.12421786	     -4.37757018	     25.52204772	     47.20653939	      0.00000000	      0.00000000	      2.57857511	    -16.69578345	    -14.59067938	     72.41395906	     47.61724280	      0.00000000	      0.00000000
     33.79200000	     -7.90926685	     -4.93258607	     -3.10015215	      1.07874434	      0.92612849	      0.41220880	     37.83167124	     -3.28057539	     -8.05272181	     37.46304354	     37.46304354	     -0.72496594	    -10.08555911	      0.65712333	      9.01617702	     -6.11805937	    -11.02670996	     17.64461562	     17.64461562	     17.35270977	     -6.63839498	     -2.30267827	    -12.78527029	      5.27870383	      0.74892293	     -6.79174138	    -16.29494924	     -4.57025094	     25.58113883	     47.20099455	      0.00000000	      0.00000000	      2.89513309	    -16.71139895	    -14.68058769	     73.19416457	     47.64357529	      0.00000000	      0.00000000
     33.80407143	     -8.10140358	     -4.78157144	     -3.14211504	      1.07935052	      0.92505448	      0.41377972	     37.31226557	     -3.21255838	     -8.44429698	     33.36604565	     33.36604565	     -0.90998200	     -8.46536946	      1.20874075	      8.41772763	     -6.01772665	    -11.23674902	     17.19530695	     17.19530695	     17.60051805	     -6.33407709	     -2.44952829	    -12.56473299	      5.12855450	      0.66099587	     -7.41055241	    -16.35878651	     -4.70397241	     25.69428114	     47.19363315	      0.00000000	      0.00000000	      3.13033134	    -16.76803456	    -14.73656226	     73.92533124	     47.66445471	      0.00000000	      0.00000000
     33.81614286	     -8.08827965	     -4.62899324	     -3.13135893	      1.08038430	      0.92408636	      0.41542014	     36.39672706	     -3.17373581	     -9.08551197	     29.26265231	     29.26265231	     -0.99709084	     -6.48768155	      1.84454826	      7.51039805	     -5.90385249	    -11.48691579	     16.63305327	     16.63305327	     17.86576043	     -5.83998005	     -2.66327843	    -12.57765964	      4.95387731	      0.61640626	     -8.09640496	    -16.46988058	     -4.89897714	     26.01415021	     47.17952480	      0.00000000	      0.00000000	      3.30184306	    -16.71157149	    -14.75706478	     74.90474322	     47.68749989	      0.00000000	      0.00000000
     33.82821429	     -7.96667062	     -4.41056838	     -3.07192472	      1.08178039	      0.92300842	      0.41709811	     35.30994642	     -3.21855185	     -9.91426451	     25.41070922	     25.41070922	     -0.92901805	     -4.20865780	      2.68883737	      6.41519387	     -5.71649434	    -11.81664342	     15.97107690	     15.97107690	     18.14384068	     -5.16000882	     -3.00865943	    -12.68120668	      4.71793349	      0.58841939	     -8.86813563	    -16.55390930	     -5.20789187	     26.75883431	     47.14962491	      0.00000000	      0.00000000	      3.35853926	    -16.64651854	    -14.75906146	     76.14712882	     47.71541798	      0.00000000	      0.00000000
